<?xml version="1.0" encoding="UTF-8" standalone="no"?>
<!-- Created with Inkscape (http://www.inkscape.org/) -->
<svg
   xmlns:dc="http://purl.org/dc/elements/1.1/"
   xmlns:cc="http://web.resource.org/cc/"
   xmlns:rdf="http://www.w3.org/1999/02/22-rdf-syntax-ns#"
   xmlns:svg="http://www.w3.org/2000/svg"
   xmlns="http://www.w3.org/2000/svg"
   xmlns:sodipodi="http://sodipodi.sourceforge.net/DTD/sodipodi-0.dtd"
   xmlns:inkscape="http://www.inkscape.org/namespaces/inkscape"
   width="278"
   height="278"
   id="svg2"
   sodipodi:version="0.32"
   inkscape:version="0.45+devel"
   version="1.0"
   sodipodi:docname="Dice.svg"
   inkscape:output_extension="org.inkscape.output.svg.inkscape">
  <defs
     id="defs4" />
  <sodipodi:namedview
     id="base"
     pagecolor="#ffffff"
     bordercolor="#666666"
     borderopacity="1.0"
     gridtolerance="10000"
     guidetolerance="10"
     objecttolerance="10"
     inkscape:pageopacity="0.0"
     inkscape:pageshadow="2"
     inkscape:zoom="1"
     inkscape:cx="375"
     inkscape:cy="200"
     inkscape:document-units="px"
     inkscape:current-layer="layer1"
     inkscape:window-width="1125"
     inkscape:window-height="714"
     inkscape:window-x="0"
     inkscape:window-y="0"
     borderlayer="true"
     inkscape:showpageshadow="false" />
  <metadata
     id="metadata7">
    <rdf:RDF>
      <cc:Work
         rdf:about="">
        <dc:format>image/svg+xml</dc:format>
        <dc:type
           rdf:resource="http://purl.org/dc/dcmitype/StillImage" />
      </cc:Work>
    </rdf:RDF>
  </metadata>
  <g
     inkscape:label="Layer 1"
     inkscape:groupmode="layer"
     id="layer1"
     transform="translate(-282,-390.375)">
    <path
       style="fill:#ffffff;fill-opacity:1;fill-rule:evenodd;stroke:none;stroke-width:1px;stroke-linecap:butt;stroke-linejoin:miter;stroke-opacity:1"
       d="M 336,390.375 C 306.084,390.375 282,414.459 282,444.375 L 282,614.375 C 282,644.291 306.084,668.375 336,668.375 L 506,668.375 C 535.916,668.375 560,644.291 560,614.375 L 560,444.375 C 560,414.459 535.916,390.375 506,390.375 L 336,390.375 z M 341,418.375 C 358.112,418.375 372,432.263 372,449.375 C 372,466.487 358.112,480.375 341,480.375 C 323.888,480.375 310,466.487 310,449.375 C 310,432.263 323.888,418.375 341,418.375 z M 501,418.375 C 518.112,418.375 532,432.263 532,449.375 C 532,466.487 518.112,480.375 501,480.375 C 483.888,480.375 470,466.487 470,449.375 C 470,432.263 483.888,418.375 501,418.375 z M 421,498.375 C 438.112,498.375 452,512.263 452,529.375 C 452,546.487 438.112,560.375 421,560.375 C 403.888,560.375 390,546.487 390,529.375 C 390,512.263 403.888,498.375 421,498.375 z M 341,578.375 C 358.112,578.375 372,592.263 372,609.375 C 372,626.487 358.112,640.375 341,640.375 C 323.888,640.375 310,626.487 310,609.375 C 310,592.263 323.888,578.375 341,578.375 z M 501,578.375 C 518.112,578.375 532,592.263 532,609.375 C 532,626.487 518.112,640.375 501,640.375 C 483.888,640.375 470,626.487 470,609.375 C 470,592.263 483.888,578.375 501,578.375 z"
       id="rect2208" />
  </g>
</svg>
