<?xml version="1.0" encoding="UTF-8" standalone="no"?>
<!-- Created with Inkscape (http://www.inkscape.org/) -->
<svg
   xmlns:dc="http://purl.org/dc/elements/1.1/"
   xmlns:cc="http://creativecommons.org/ns#"
   xmlns:rdf="http://www.w3.org/1999/02/22-rdf-syntax-ns#"
   xmlns:svg="http://www.w3.org/2000/svg"
   xmlns="http://www.w3.org/2000/svg"
   xmlns:xlink="http://www.w3.org/1999/xlink"
   xmlns:sodipodi="http://sodipodi.sourceforge.net/DTD/sodipodi-0.dtd"
   xmlns:inkscape="http://www.inkscape.org/namespaces/inkscape"
   width="278"
   height="278"
   id="svg2"
   sodipodi:version="0.32"
   inkscape:version="0.46"
   version="1.0"
   sodipodi:docname="Icon.svg"
   inkscape:output_extension="org.inkscape.output.svg.inkscape">
  <defs
     id="defs4">
    <linearGradient
       id="linearGradient3219">
      <stop
         style="stop-color:#e2e2e2;stop-opacity:1;"
         offset="0"
         id="stop3221" />
      <stop
         style="stop-color:#737373;stop-opacity:1;"
         offset="1"
         id="stop3223" />
    </linearGradient>
    <inkscape:perspective
       sodipodi:type="inkscape:persp3d"
       inkscape:vp_x="0 : 139 : 1"
       inkscape:vp_y="0 : 1000 : 0"
       inkscape:vp_z="278 : 139 : 1"
       inkscape:persp3d-origin="139 : 92.666667 : 1"
       id="perspective2445" />
    <linearGradient
       inkscape:collect="always"
       xlink:href="#linearGradient3219"
       id="linearGradient3225"
       x1="347"
       y1="433.375"
       x2="347"
       y2="628.375"
       gradientUnits="userSpaceOnUse" />
  </defs>
  <sodipodi:namedview
     id="base"
     pagecolor="#000000"
     bordercolor="#666666"
     borderopacity="1.0"
     gridtolerance="10000"
     guidetolerance="10"
     objecttolerance="10"
     inkscape:pageopacity="0"
     inkscape:pageshadow="2"
     inkscape:zoom="1"
     inkscape:cx="45"
     inkscape:cy="200"
     inkscape:document-units="px"
     inkscape:current-layer="layer1"
     inkscape:window-width="1125"
     inkscape:window-height="714"
     inkscape:window-x="0"
     inkscape:window-y="22"
     borderlayer="true"
     inkscape:showpageshadow="false"
     showgrid="false" />
  <metadata
     id="metadata7">
    <rdf:RDF>
      <cc:Work
         rdf:about="">
        <dc:format>image/svg+xml</dc:format>
        <dc:type
           rdf:resource="http://purl.org/dc/dcmitype/StillImage" />
      </cc:Work>
    </rdf:RDF>
  </metadata>
  <g
     inkscape:label="Layer 1"
     inkscape:groupmode="layer"
     id="layer1"
     transform="translate(-282,-390.375)">
    <rect
       style="fill:#000000;fill-opacity:1;stroke:none"
       id="rect2385"
       width="345"
       height="326"
       x="-33"
       y="-22"
       transform="translate(282,390.375)" />
    <path
       style="fill:url(#linearGradient3225);fill-opacity:1;fill-rule:evenodd;stroke:none;stroke-width:1px;stroke-linecap:butt;stroke-linejoin:miter;stroke-opacity:1"
       d="M 384.8777,433.375 C 363.89345,433.375 347,450.26845 347,471.2527 L 347,590.4973 C 347,611.48155 363.89345,628.375 384.8777,628.375 L 504.1223,628.375 C 525.10655,628.375 542,611.48155 542,590.4973 L 542,471.2527 C 542,450.26845 525.10655,433.375 504.1223,433.375 L 384.8777,433.375 z M 388.38489,453.01529 C 400.38791,453.01529 410.12949,462.75687 410.12949,474.75989 C 410.12949,486.76291 400.38791,496.50449 388.38489,496.50449 C 376.38187,496.50449 366.64029,486.76291 366.64029,474.75989 C 366.64029,462.75687 376.38187,453.01529 388.38489,453.01529 z M 500.61511,453.01529 C 512.61813,453.01529 522.35971,462.75687 522.35971,474.75989 C 522.35971,486.76291 512.61813,496.50449 500.61511,496.50449 C 488.61209,496.50449 478.87051,486.76291 478.87051,474.75989 C 478.87051,462.75687 488.61209,453.01529 500.61511,453.01529 z M 444.5,509.13039 C 456.50302,509.13039 466.24461,518.87198 466.24461,530.875 C 466.24461,542.87802 456.50302,552.61961 444.5,552.61961 C 432.49698,552.61961 422.75539,542.87802 422.75539,530.875 C 422.75539,518.87198 432.49698,509.13039 444.5,509.13039 z M 388.38489,565.24551 C 400.38791,565.24551 410.12949,574.98709 410.12949,586.99011 C 410.12949,598.99313 400.38791,608.73471 388.38489,608.73471 C 376.38187,608.73471 366.64029,598.99313 366.64029,586.99011 C 366.64029,574.98709 376.38187,565.24551 388.38489,565.24551 z M 500.61511,565.24551 C 512.61813,565.24551 522.35971,574.98709 522.35971,586.99011 C 522.35971,598.99313 512.61813,608.73471 500.61511,608.73471 C 488.61209,608.73471 478.87051,598.99313 478.87051,586.99011 C 478.87051,574.98709 488.61209,565.24551 500.61511,565.24551 z"
       id="rect2208" />
    <rect
       style="fill:#484848;fill-opacity:1;stroke:none"
       id="rect2447"
       width="60"
       height="295"
       x="-13"
       y="-7"
       transform="translate(282,390.375)"
       ry="0" />
  </g>
</svg>
